<svg xmlns="http://www.w3.org/2000/svg" width="103.002" height="145" viewBox="0 0 103.002 145">
  <g id="Group_8" data-name="Group 8" transform="translate(0.124 -0.231)">
    <path id="Path_29" data-name="Path 29" d="M1954,959c.731.92,1.822,1,3,1h48c1.573,0,3.412-.547,4-2,.074-.182.648-3.019,1-4,1-2.793,2.064-5.811,3-9,1.5-5.1,3.246-10.28,4-15,1.63-10.2,1.411-18.405-2-24-3.547-5.819-10.735-10.034-19-13a72.95,72.95,0,0,0-13-3,9.494,9.494,0,0,0-3,0V855c0-6.346-4.628-12-11-12h-2a12.349,12.349,0,0,0-12,12v60l-13-11c-8.244-7.183-19.573-5.458-25,4-.848,1.477.023,3.771,1,5Zm-27-50c3.147-2.4,6.539-2.014,10,1l20,17c2.492,2.172,6,.3,6-3V855a4.122,4.122,0,0,1,4-4h2a4.133,4.133,0,0,1,4,4v38c0,2.012.985,3.854,3,4,.239.018,1.294-.08,2,0,1.2.136,2.55.757,4,1a69.831,69.831,0,0,1,12,3c6.761,2.427,11.539,4.963,14,9,2.211,3.628,2.366,10.447,1,19a112.856,112.856,0,0,1-3,14c-.891,3.036-2.045,6.342-3,9-.333.928,0,1,0,1h-44l-34-43A10.2,10.2,0,0,0,1927,909Z" transform="translate(-1916.781 -814.769)" fill="#3d58a6"/>
    <path id="Path_30" data-name="Path 30" d="M1993,850c-2.436-11.792-12.437-20-25-20a26.026,26.026,0,0,0-26,26,24.164,24.164,0,0,0,13,22c1.87,1.014,4.982.862,6-1s-.13-3.987-2-5c-5.854-3.173-9-9.245-9-16,0-10.069,7.887-19,18-19s18,8.931,18,19a17.977,17.977,0,0,1-9,16c-1.858,1.034-3.039,3.15-2,5s4.142,2.035,6,1a25.313,25.313,0,0,0,13-20h11v4a1.242,1.242,0,0,0,2,1l10-8c.886-.631.869-1.382,0-2l-10-7a1.232,1.232,0,0,0-2,1v3Z" transform="translate(-1914.781 -829.769)" fill="#3d58a6"/>
  </g>
</svg>
